PathFileType	4	(X/Y/Z)	4_coords_data.trc
DataRate	CameraRate	NumFrames	NumMarkers	Units	OrigDataRate	OrigDataStartFrame	OrigNumFrames
30.0	30.0	8	21	m	30.0	1	44
Frame#	Time	THUMB_TIP	THUMB_IP	THUMB_MCP	THUMB_CMC	INDEX_TIP	INDEX_DIP	INDEX_PIP	INDEX_MCP	MIDDLE_TIP	MIDDLE_DIP	MIDDLE_PIP	MIDDLE_MCP	RING_TIP	RING_DIP	RING_PIP	RING_MCP	PINKY_TIP	PINKY_DIP	PINKY_PIP	PINKY_MCP	WRIST
X1	Y1	Z1	X2	Y2	Z2	X3	Y3	Z3	X4	Y4	Z4	X5	Y5	Z5	X6	Y6	Z6	X7	Y7	Z7	X8	Y8	Z8	X9	Y9	Z9	X10	Y10	Z10	X11	Y11	Z11	X12	Y12	Z12	X13	Y13	Z13	X14	Y14	Z14	X15	Y15	Z15	X16	Y16	Z16	X17	Y17	Z17	X18	Y18	Z18	X19	Y19	Z19	X20	Y20	Z20	X21	Y21	Z21
0	-2.749317978547796e-18	0.4885048135276163	-0.020906804835995607	-0.16867724638416942	0.49174312030069844	-0.023478192441983015	-0.14607411971940937	0.47598802491749415	-0.02996334963542735	-0.12002532501327257	0.47810513560899126	-0.02667385172044201	-0.07558899926746798	0.4964304821480293	-0.016540809844562854	-0.09701526476715255	0.5133567249873028	-0.015749207458086945	-0.10340867301375045	0.5288244470812952	-0.0010550016136481322	-0.11670678268483825	0.4921933833345249	0.02062573457890604	-0.11802850161446315	0.5000509477360625	-0.015739383071869062	-0.08462118847506755	0.5175932367400163	-0.011700263811773248	-0.08660955768235318	0.5370392754529859	0.006462141977557567	-0.09850023236116645	0.5007714202306143	0.032538627006533205	-0.09760160724316835	0.527147995413079	0.0066917752187698465	-0.07851990963312527	0.5182699818998022	-0.006663381912957789	-0.07028458000736387	0.5391448301714051	0.005812491565677758	-0.07564865211562699	0.511732947838699	0.03552998842165267	-0.075224480460505	0.5024192170155105	-0.012295211189344402	-0.058168982920870915	0.5192469003932304	-0.010131179096083964	-0.055900495045974496	0.5354242235979793	0.003168904475909007	-0.05441254010475516	0.5126655028775393	0.03100772356077297	-0.05159753848322263	0.4622830810018609	-0.023011742144276925	-0.051989820119430985
1	0.03333333333333339	0.48826781681451337	-0.020922142229503837	-0.16913158451750687	0.4914386286778212	-0.023182622762112914	-0.14648569791774657	0.4760982839822603	-0.029850090142641617	-0.12023615119116554	0.4777717401289783	-0.027058052742924943	-0.0757468932553042	0.4964022643605662	-0.01638000216876645	-0.09807428319668127	0.5135627004321989	-0.015879475473480675	-0.10384220369359476	0.5287922737466567	-0.0010857379147607427	-0.11730382539022804	0.4920044235063059	0.02034559941837899	-0.1182977815294507	0.4998145261201016	-0.016463141561930628	-0.08510482288672766	0.5173192139855789	-0.01220018682701085	-0.08695228592025084	0.5367632369694684	0.006143069812985846	-0.09856540161076205	0.5006241958699592	0.03240442335569682	-0.09788795086514696	0.5266883414341191	0.0066556994255474455	-0.07887993730135717	0.5179981111150244	-0.006782631062507649	-0.07057986677786798	0.5388726650875406	0.005741278970231134	-0.07583197615795295	0.5115712064726868	0.035561284374326374	-0.07548778260606182	0.5024078836227351	-0.010539114807225691	-0.056897840311975034	0.5194761978318956	-0.009980934053191781	-0.05573118513447145	0.535599276027573	0.0034304170210692764	-0.054734174172150096	0.5126128334049938	0.031057400023939974	-0.051691688885749376	0.4622830810018609	-0.023011742144276925	-0.05198982011943104
2	0.06666666666666676	0.48814267430167646	-0.020888651134337577	-0.16944209746530148	0.49124443674095986	-0.022918050369136078	-0.14676478262169507	0.476202224109631	-0.029732369259475422	-0.12038075530942427	0.4775264106460494	-0.027333492366140466	-0.07585680759959751	0.4964003469606366	-0.016234698145382254	-0.09888375515795123	0.5137217924642552	-0.015953764110986257	-0.10416472114283437	0.5287625554768718	-0.0010788773491337	-0.11774864637894955	0.4918526535595713	0.020151831593802516	-0.11849176967665598	0.4996451632685619	-0.017014808461718656	-0.08549292810203712	0.5171152688701323	-0.012558573769722137	-0.08720680751431364	0.5365495156894924	0.005929553812483168	-0.09860455900609022	0.5005029290269245	0.03232132550628153	-0.09808890617674632	0.5259865481478772	0.00678643785634514	-0.07925633385772407	0.5177799883923493	-0.006854012859763836	-0.07079521801876093	0.5386531586238531	0.00571112521285333	-0.07595351703129727	0.5114324881981336	0.035605506983747315	-0.07566738050723515	0.5025510829758302	-0.009375730550755912	-0.05606599246567512	0.5196557396143671	-0.009847149280061251	-0.055609390166715844	0.5357237025936813	0.0036514830356293437	-0.05496169401790607	0.5125582345577268	0.031108429315116592	-0.0517428987960053	0.4622830810018608	-0.023011742144276925	-0.051989820119430985
3	0.10000000000000014	0.48810822348255845	-0.020819349034097212	-0.16964002194673267	0.4911406605933927	-0.022690691494018922	-0.14693974876409166	0.4762927121352355	-0.02962143950527818	-0.1204761292348524	0.4773568625894751	-0.027517864034091177	-0.07593028145924302	0.49640863450474215	-0.016100529609703873	-0.09947436137069021	0.5138395589742892	-0.01597871686746799	-0.10438842626574141	0.5287371183361642	-0.0010384648225614246	-0.11805815292336258	0.491734904922819	0.02003659629756116	-0.11861859497778976	0.49953088485520636	-0.017401431425857372	-0.08578815019309605	0.5169728324717652	-0.01279349805718466	-0.08738358537231511	0.5363918855138616	0.005808508210434216	-0.09862081331196776	0.5004053191408071	0.03228396439689296	-0.098214388169228	0.5231184241542008	0.00761397651755491	-0.08013168823563216	0.5176099461714614	-0.006883575855709867	-0.07094051608524116	0.538480894207097	0.005716758909789621	-0.0760213694477338	0.5113148334103297	0.035661114954965156	-0.0757733456059213	0.5027064689472458	-0.008624916899798052	-0.055538085444802154	0.5197876456030898	-0.00973538703394805	-0.055521956805377026	0.5358038541834157	0.003833670399127409	-0.055105109004143504	0.5125028081282462	0.031159920502910166	-0.05175536886491039	0.4622830810018609	-0.023011742144276925	-0.051989820119430985
4	0.13333333333333353	0.4881457152154768	-0.020723080480342992	-0.16974957033652505	0.49110963367276184	-0.022501289078281195	-0.14703276682985228	0.47636600627648373	-0.029522701649114302	-0.1205347439468169	0.4772515818067009	-0.027625975732162633	-0.07597570236403328	0.4964177640086408	-0.015974257390271362	-0.09987626372111258	0.5139214881280484	-0.015960848287054907	-0.104525937058845	0.5287168041586428	-0.0009686205471876042	-0.11824969616306968	0.49164756482512295	0.01999126722016753	-0.11868638142055721	0.4994603275829801	-0.017633703909222143	-0.08599419410611603	0.5168832197490104	-0.012922366435336397	-0.08749290280964594	0.5362835312595119	0.0057670371787617025	-0.098616915388066	0.5003289264884682	0.03228677837029703	-0.09827392283416919	0.5045149378319822	-0.01770011391400994	-0.06472321396538722	0.5174822468498551	-0.0068773646816416845	-0.07102535613200484	0.5383503311367239	0.005752910067211348	-0.0760432438314887	0.5112162166235862	0.03572637692963854	-0.07581532315471601	0.5028247037125272	-0.008167885819872711	-0.05522363971223776	0.5198762160511856	-0.009647816644812734	-0.055459715373772256	0.5358459062915537	0.003979363990141649	-0.055175179665968854	0.5124476002638679	0.031210950815127814	-0.051733754811638555	0.4622830810018609	-0.023011742144276925	-0.05198982011943093
5	0.1666666666666669	0.48823853076708823	-0.020605604110896514	-0.1697897729435363	0.4911356496719631	-0.02234656871069851	-0.14706147022834765	0.4764210451869103	-0.029437238163033896	-0.12056575696060967	0.47719972616817896	-0.027670581333745115	-0.07599937299716769	0.4964229924125868	-0.015853665884096646	-0.10011862484767631	0.513972988965174	-0.015906550875845804	-0.10459018209116838	0.5287016973328117	-0.0008735170940287196	-0.11834092309432243	0.49158668771195213	0.020006638080610095	-0.11870324163719881	0.4994235958374488	-0.017727683061138144	-0.08611719149024166	0.5168376895365374	-0.012962075640615245	-0.08754489123206888	0.5362172336981265	0.005792383035903237	-0.09859537076192582	0.5002712167302595	0.03232406732324633	-0.09827675810904896	0.5064058638970171	-0.0190944121604959	-0.0636978867232818	0.5173911264776887	-0.006841420725366754	-0.07105915067211227	0.5382558579641766	0.005814309956278851	-0.07602658863452438	0.5111345777234119	0.035799420407252924	-0.07580266153749382	0.5028938031769111	-0.00792722119578304	-0.055063893710100564	0.5199270039522744	-0.009584260164681724	-0.055416446119982476	0.5358558642897981	0.004091595400028125	-0.055183203926433555	0.5123936014910313	0.031260595367703425	-0.05168304448462674	0.4622830810018608	-0.023011742144276925	-0.051989820119430985
6	0.20000000000000023	0.4883717067590273	-0.020470541913616525	-0.1697761263860078	0.4912045169024014	-0.02222049628907885	-0.14704040897099324	0.4764586929870811	-0.02936316289170171	-0.1205760368669333	0.4771909546841884	-0.027663064090640677	-0.07600627742318511	0.496422636918571	-0.015737303571463856	-0.1002296659441238	0.5139994011793694	-0.01582210710689791	-0.10459431558420973	0.5286913401028421	-0.0007573507103592059	-0.1183496737540975	0.4915480949477723	0.02007311031991621	-0.11867728116634985	0.49941261496920486	-0.01770504508533921	-0.08616641817108711	0.5168274888160627	-0.012929161695948932	-0.08754956919283985	0.5361855194035684	0.005871874460204873	-0.09855853105253387	0.5002295973108553	0.032390036915640796	-0.09823196184110383	0.5066328636890866	-0.01921183334817944	-0.06356472936771401	0.5173308267303274	-0.006781785277908292	-0.07105121664406727	0.5381918335407321	0.005895688770899854	-0.0759786932394505	0.5110678462137115	0.03587827220722217	-0.0757445224308646	0.502916953908116	-0.0078494559093083	-0.0550191906114289	0.5199462251197675	-0.009542960582257454	-0.05538792347234739	0.5358395871436593	0.0041738907128143765	-0.05514083416380283	0.5123417497966226	0.031307952483692	-0.05160844363805217	0.4622830810018609	-0.023011742144276925	-0.051989820119430985
7	0.23333333333333361	0.48853142288529505	-0.020320174995244522	-0.16972201063552567	0.491303074681976	-0.022115325223737936	-0.1469822792832186	0.47648104076109365	-0.029296757429392528	-0.12057102520614371	0.47721524705299134	-0.027613986482249775	-0.07600064016113445	0.49641694574176953	-0.015624186951155972	-0.10023694987228537	0.5140060147174237	-0.015713701548380143	-0.10455165029138375	0.5286849243182816	-0.0006243100715880301	-0.11829391032348768	0.4915274610103032	0.020180854693085837	-0.11861660775298638	0.499420871001654	-0.01759192999891912	-0.08615415661607206	0.516843886577942	-0.012839930804367072	-0.08751688618697262	0.536180780787572	0.0059928812610851034	-0.09850866775471406	0.5002014472361616	0.032478835296280484	-0.09814850523323115	0.5064821809657442	-0.019072867442927466	-0.06358837116686117	0.5172956183748995	-0.006704502815651159	-0.07101084567641791	0.5381526186165849	0.005991773175127113	-0.07590677213464009	0.5110139601579077	0.035960892360301755	-0.07564997196315615	0.5029035111004857	-0.007893709183028008	-0.05506025268329018	0.5199403766994076	-0.009521156411505305	-0.05537110004582074	0.5358028197017131	0.004230137743417406	-0.055059924752146994	0.5122929358638261	0.03135216332323165	-0.051515275068896416	0.462283081001861	-0.023011742144276925	-0.05198982011943104
